PathFileType	4	(X/Y/Z)	 New Session 101.trc
DataRate	CameraRate	NumFrames	NumMarkers	Units	OrigDataRate	OrigDataStartFrame	OrigNumFrames
100	100	9	14	m	100	127	337
Frame#	Time	C7			T8			IJ			PX			AA			AC			AI			TS			SC			GH			LE			ME			US			RS			
		X1	Y1	Z1	X2	Y2	Z2	X3	Y3	Z3	X4	Y4	Z4	X5	Y5	Z5	X6	Y6	Z6	X7	Y7	Z7	X8	Y8	Z8	X9	Y9	Z9	X10	Y10	Z10	X11	Y11	Z11	X12	Y12	Z12	X13	Y13	Z13	X14	Y14	Z14	
127	1.2700	0.020734	0.108258	0.150670	0.030172	-0.106439	0.230448	-0.000438	0.000422	-0.006701	0.000915	-0.141830	-0.071064	0.220433	0.012556	0.133936	0.168036	0.054442	0.064453	0.107501	0.032180	0.194060	0.112677	-0.085813	0.226727	0.024386	0.008924	-0.002808	0.231041	0.026764	0.094188	0.321011	-0.246513	0.023631	0.238439	-0.284194	-0.009745	0.409055	-0.495355	-0.066898	0.443720	-0.448708	-0.121906	
128	1.2800	0.020711	0.108249	0.150677	0.030164	-0.106448	0.230439	-0.000451	0.000445	-0.006703	0.000909	-0.141808	-0.071084	0.220405	0.012560	0.133939	0.168013	0.054455	0.064464	0.107484	0.032176	0.194066	0.112683	-0.085812	0.226722	0.024373	0.008933	-0.002811	0.231015	0.026769	0.094201	0.320999	-0.246489	0.023638	0.238451	-0.284174	-0.009731	0.409059	-0.495328	-0.066881	0.443676	-0.448698	-0.121913	
129	1.2900	0.020691	0.108232	0.150677	0.030153	-0.106453	0.230435	-0.000466	0.000466	-0.006709	0.000900	-0.141788	-0.071106	0.220379	0.012563	0.133943	0.167991	0.054464	0.064475	0.107465	0.032167	0.194069	0.112684	-0.085809	0.226717	0.024360	0.008941	-0.002816	0.230985	0.026772	0.094211	0.320982	-0.246463	0.023642	0.238464	-0.284156	-0.009719	0.409072	-0.495302	-0.066859	0.443660	-0.448683	-0.121908	
130	1.3000	0.020669	0.108214	0.150672	0.030135	-0.106453	0.230433	-0.000483	0.000485	-0.006718	0.000888	-0.141771	-0.071128	0.220353	0.012564	0.133949	0.167970	0.054469	0.064484	0.107439	0.032155	0.194070	0.112680	-0.085807	0.226713	0.024346	0.008947	-0.002826	0.230953	0.026775	0.094220	0.320961	-0.246435	0.023647	0.238476	-0.284139	-0.009709	0.409092	-0.495277	-0.066834	0.443681	-0.448659	-0.121887	
131	1.3100	0.020645	0.108199	0.150665	0.030113	-0.106451	0.230430	-0.000504	0.000501	-0.006732	0.000870	-0.141757	-0.071152	0.220327	0.012565	0.133955	0.167948	0.054473	0.064490	0.107405	0.032145	0.194073	0.112668	-0.085804	0.226708	0.024329	0.008952	-0.002839	0.230921	0.026778	0.094226	0.320935	-0.246410	0.023657	0.238488	-0.284125	-0.009702	0.409117	-0.495254	-0.066809	0.443719	-0.448628	-0.121856	
132	1.3200	0.020615	0.108193	0.150658	0.030091	-0.106446	0.230425	-0.000529	0.000516	-0.006750	0.000844	-0.141745	-0.071175	0.220297	0.012566	0.133960	0.167924	0.054475	0.064491	0.107366	0.032140	0.194073	0.112649	-0.085803	0.226702	0.024308	0.008958	-0.002856	0.230890	0.026783	0.094232	0.320910	-0.246390	0.023673	0.238498	-0.284112	-0.009696	0.409143	-0.495232	-0.066784	0.443754	-0.448592	-0.121830	
133	1.3300	0.020580	0.108194	0.150651	0.030068	-0.106441	0.230414	-0.000559	0.000528	-0.006769	0.000814	-0.141734	-0.071198	0.220265	0.012569	0.133960	0.167899	0.054478	0.064487	0.107327	0.032147	0.194067	0.112621	-0.085804	0.226692	0.024282	0.008964	-0.002877	0.230861	0.026792	0.094237	0.320888	-0.246377	0.023694	0.238506	-0.284101	-0.009693	0.409171	-0.495211	-0.066760	0.443777	-0.448555	-0.121815	
134	1.3400	0.020539	0.108199	0.150642	0.030039	-0.106439	0.230394	-0.000594	0.000540	-0.006790	0.000780	-0.141724	-0.071220	0.220228	0.012573	0.133955	0.167870	0.054481	0.064477	0.107286	0.032161	0.194055	0.112584	-0.085807	0.226678	0.024252	0.008973	-0.002899	0.230835	0.026804	0.094240	0.320871	-0.246372	0.023716	0.238512	-0.284092	-0.009692	0.409199	-0.495192	-0.066735	0.443790	-0.448523	-0.121810	
135	1.3500	0.020494	0.108206	0.150633	0.030004	-0.106440	0.230370	-0.000633	0.000551	-0.006810	0.000746	-0.141716	-0.071243	0.220190	0.012577	0.133947	0.167840	0.054485	0.064462	0.107244	0.032174	0.194038	0.112542	-0.085813	0.226660	0.024217	0.008984	-0.002923	0.230813	0.026820	0.094244	0.320857	-0.246370	0.023737	0.238516	-0.284085	-0.009694	0.409226	-0.495174	-0.066707	0.443804	-0.448497	-0.121804	
